<?xml version="1.0" encoding="iso-8859-1"?>
<!-- Uploaded to: SVG Repo, www.svgrepo.com, Generator: SVG Repo Mixer Tools -->
<svg fill="#000000" height="800px" width="800px" version="1.1" id="Layer_1" xmlns="http://www.w3.org/2000/svg" xmlns:xlink="http://www.w3.org/1999/xlink" 
	 viewBox="0 0 512.001 512.001" xml:space="preserve">
<g>
	<g>
		<path d="M470.287,48.377c7.953-15.258,3.035-33.777-11.44-43.078c-14.474-9.302-33.363-6.081-43.937,7.492l-65.19,83.68
			c-34.853-42.65-76.844-65.989-119.18-65.989c-22.421,0-44.617,6.384-65.97,18.975c-4.09,2.412-5.452,7.684-3.039,11.775
			c2.415,4.092,7.685,5.452,11.776,3.039c18.67-11.009,37.927-16.59,57.234-16.59c38.024,0,76.292,22.23,108.314,62.739
			c0,0-42.373,54.428-42.45,54.549l-19.501,30.345c-11.181,4.731-51.177,24.569-63.249,70.473
			c-6.141,23.349,3.926,39.948,12.808,54.593c12.215,20.142,23.754,39.166,0.68,79.869c-1.75,3.088-1.424,6.934,0.822,9.682
			c1.662,2.034,4.124,3.158,6.66,3.158c0.889,0,1.79-0.139,2.664-0.424c1.126-0.367,21.327-7.057,45.354-21.215
			c36.459,3.148,59.134,22.321,69.15,58.496c-30.822,28.957-73.709,44.857-121.251,44.857c-49.009,0-93.073-16.892-124.071-47.562
			c-19.593-19.385-33.787-43.826-42.224-72.275c8.702-7.457,32.409-23.527,68.082-15.425c18.505,4.207,29.294,11.23,39.725,18.023
			c11.443,7.451,23.278,15.155,42.889,16.908c0.261,0.023,0.519,0.034,0.776,0.034c4.403,0,8.155-3.364,8.555-7.834
			c0.422-4.731-3.07-8.907-7.8-9.33c-15.349-1.372-24.037-7.029-35.038-14.191c-11.155-7.262-23.796-15.493-45.299-20.381
			c-35.931-8.16-62.257,4.252-76.38,14.046c-3.065-15.267-4.635-31.505-4.635-48.599c0-86.893,39.811-180.957,96.81-228.747
			c3.64-3.051,4.116-8.475,1.065-12.114c-3.051-3.639-8.477-4.116-12.113-1.065c-30.061,25.203-55.849,61.922-74.579,106.185
			c-18.567,43.882-28.381,90.82-28.381,135.741c0,62.409,19.52,114.71,56.449,151.248c34.24,33.878,82.598,52.535,136.167,52.535
			c53.563,0,101.919-18.657,136.158-52.535c36.928-36.539,56.447-88.84,56.447-151.248c0-31.229-4.993-64.674-14.44-96.719
			c-1.344-4.555-6.124-7.16-10.68-5.816c-4.555,1.343-7.159,6.125-5.816,10.68c8.989,30.487,13.739,62.251,13.739,91.855
			c0,51.278-14.029,94.938-40.716,127.35c-6.133-16.861-15.212-30.448-27.124-40.486c-9.674-8.152-21.239-13.978-34.522-17.458
			c1.497-1.108,2.994-2.233,4.484-3.397c44.296-34.593,62.874-77.778,53.916-125.087l19.113-29.742
			C381.185,219.261,470.287,48.377,470.287,48.377z M297.824,360.404c-16.152,12.673-33.265,21.859-45.997,27.767
			c13.629-36.667,0.338-58.575-10.66-76.709c-8.473-13.972-15.166-25.007-10.881-41.3c1.651-6.278,3.983-11.969,6.743-17.142
			c6.884,2.19,18.632,6.898,28.358,15.693c7.069,6.39,11.942,13.942,14.482,22.447c7.764,26.051,29.92,36.033,47.896,38.731
			C320.073,340.592,310.097,350.775,297.824,360.404z M337.579,313.427c-10.073-0.284-34.172-3.498-41.232-27.185
			c-3.454-11.568-9.992-21.76-19.429-30.288c-9.99-9.034-21.392-14.516-29.864-17.671c12.596-14.9,27.853-23.117,34.766-26.313
			l63.339,40.703C349.19,274.266,346.639,294.563,337.579,313.427z M350.289,235.528l-55.759-35.832l11.693-18.196l27.879,17.917
			l27.879,17.917L350.289,235.528z M316.209,167.475L428.478,23.36c5.072-6.51,14.129-8.055,21.073-3.593
			c6.943,4.461,9.301,13.343,5.487,20.662l-84.446,161.995L316.209,167.475z"/>
	</g>
</g>
</svg>