<?xml version="1.0" encoding="iso-8859-1"?>
<!-- Uploaded to: SVG Repo, www.svgrepo.com, Generator: SVG Repo Mixer Tools -->
<svg height="800px" width="800px" version="1.1" id="Layer_1" xmlns="http://www.w3.org/2000/svg" xmlns:xlink="http://www.w3.org/1999/xlink" 
	 viewBox="0 0 512 512" xml:space="preserve">
<path style="fill:#FFA0C1;" d="M332.93,345.837H48.216l-22.87,33.838C50.714,472.001,119.788,512,186.151,512
	s135.436-39.999,160.805-132.325L332.93,345.837z"/>
<path style="fill:#FFD77A;" d="M186.151,28.948c-53.258,0-109.024,49.663-141.838,125.391l14.853,40.38h258.433l10.39-40.38
	C295.174,78.611,239.409,28.948,186.151,28.948z"/>
<circle style="fill:#FFA0C1;" cx="186.149" cy="95.752" r="22.673"/>
<g>
	<circle style="fill:#FFD77A;" cx="119.35" cy="441.471" r="22.673"/>
	<circle style="fill:#FFD77A;" cx="252.947" cy="441.471" r="22.673"/>
</g>
<path style="fill:#AF9CE6;" d="M327.989,154.339c-11.97,0.027-23.937,2.234-35.29,6.629l0,0c-22.85,8.847-48.18,8.847-71.032,0l0,0
	c-22.85-8.847-48.18-8.847-71.032,0l0,0c-22.85,8.847-48.18,8.847-71.032,0l0,0c-11.355-4.396-23.32-6.602-35.29-6.629
	c-17.983,41.499-29.08,90.82-29.08,144.101c0,30.633,3.63,57.641,10.113,81.234c18.066-3.506,36.878-1.91,54.258,4.818l0,0
	c22.85,8.847,48.18,8.847,71.032,0l0,0c22.85-8.847,48.18-8.847,71.032,0l0,0c22.85,8.847,48.18,8.847,71.032,0l0,0
	c17.38-6.728,36.192-8.325,54.258-4.818c6.483-23.593,10.113-50.601,10.113-81.234C357.069,245.158,345.972,195.838,327.989,154.339
	z"/>
<path style="opacity:0.1;enable-background:new    ;" d="M80.098,379.675c-6.483-23.593-10.113-50.601-10.113-81.234
	c0-53.281,11.097-102.601,29.08-144.101c27.212-62.797,70.204-107.668,114.462-121.162c-9.114-2.779-18.282-4.229-27.376-4.229
	c-53.258,0-109.022,49.663-141.838,125.391c-17.983,41.499-29.08,90.819-29.08,144.101c0,30.633,3.63,57.641,10.113,81.234
	C50.714,472.001,119.788,512,186.151,512c9.114,0,18.28-0.76,27.376-2.301C156.393,500.02,101.983,459.32,80.098,379.675z"/>
<path style="opacity:0.1;enable-background:new    ;" d="M306.731,270.159l43.134-45.238c-4.857-24.382-11.996-47.3-20.891-68.268
	l-57.983,55.288c-47.07-15.219-63.653,72.385-100.931,105.992C170.06,317.932,300.7,347.914,306.731,270.159z"/>
<path style="fill:#FFA0C1;" d="M489.299,45.839L304.384,239.77c-12.767,13.389-33.972,13.894-47.361,1.127
	c-13.389-12.767-13.894-33.972-1.127-47.361c0.341-0.357,0.775-0.788,1.127-1.127L450.952,7.494
	c10.841-10.337,28.009-9.929,38.345,0.912C499.321,18.917,499.194,35.425,489.299,45.839z"/>
<path style="fill:#43434D;" d="M275.778,180.946c-50.78-22.953-67.202,69.413-105.718,104.136c0,0,139.762,32.081,136.852-56.147
	C306.233,208.337,294.557,189.434,275.778,180.946z"/>
<path style="fill:#646473;" d="M297.866,199.998c-5.336-8.178-12.85-14.877-22.088-19.053
	c-50.78-22.952-67.202,69.413-105.718,104.136c0,0,0.339,0.078,0.969,0.211C216.18,255.238,252.263,170.858,297.866,199.998z"/>
</svg>